<svg width="352" height="160" viewBox="0 0 352 160" fill="none" xmlns="http://www.w3.org/2000/svg">
<path d="M54.26 11.332V11.98C54.26 13.412 53.988 14.452 53.444 15.1C52.908 15.748 52.044 16.072 50.852 16.072C49.66 16.072 48.796 15.748 48.26 15.1C47.732 14.452 47.468 13.4 47.468 11.944V11.32C47.468 9.992 47.736 9.004 48.272 8.356C48.816 7.708 49.672 7.384 50.84 7.384C52.016 7.384 52.88 7.712 53.432 8.368C53.984 9.024 54.26 10.012 54.26 11.332ZM52.592 11.944V11.5C52.592 10.732 52.496 10.12 52.304 9.664C52.08 9.136 51.6 8.872 50.864 8.872C50.12 8.872 49.636 9.136 49.412 9.664C49.228 10.096 49.136 10.708 49.136 11.5V11.944C49.136 12.976 49.28 13.672 49.568 14.032C49.68 14.184 49.844 14.316 50.06 14.428C50.284 14.532 50.548 14.584 50.852 14.584C51.164 14.584 51.428 14.532 51.644 14.428C51.86 14.324 52.028 14.196 52.148 14.044C52.268 13.892 52.36 13.692 52.424 13.444C52.536 13.052 52.592 12.552 52.592 11.944ZM58.5267 16H57.5547C56.9627 16 56.5107 15.824 56.1987 15.472C55.8947 15.12 55.7427 14.7 55.7427 14.212V10.612H55.0827V9.424H55.7427V8.08H57.3027V9.424H58.4067V10.612H57.3027V14.116C57.3027 14.492 57.4827 14.68 57.8427 14.68H58.5267V16ZM65.1094 16H63.5494V11.704C63.5494 10.968 63.2614 10.6 62.6854 10.6L61.1974 11.188V16H59.6374V6.976H61.1974V9.964L63.1774 9.076C63.8814 9.076 64.3774 9.276 64.6654 9.676C64.9614 10.076 65.1094 10.636 65.1094 11.356V16ZM75.4814 16H73.9214V11.74C73.9214 11.316 73.8694 11.02 73.7654 10.852C73.6694 10.684 73.4974 10.6 73.2494 10.6L71.8454 11.188V16H70.2854V11.74C70.2854 10.98 70.0214 10.6 69.4934 10.6L68.2094 11.188V16H66.6494V9.148H67.8134L68.1734 9.964L69.9734 9.076C70.5974 9.076 71.0694 9.38 71.3894 9.988L73.6214 9.076C74.2454 9.076 74.7094 9.288 75.0134 9.712C75.3254 10.128 75.4814 10.692 75.4814 11.404V16ZM81.8772 16H80.8332L80.3532 15.172L78.6852 16.072C77.7572 16.072 77.1332 15.736 76.8132 15.064C76.6532 14.736 76.5412 14.384 76.4772 14.008C76.4212 13.624 76.3932 13.228 76.3932 12.82C76.3932 12.404 76.3972 12.1 76.4052 11.908C76.4132 11.708 76.4332 11.48 76.4652 11.224C76.4972 10.96 76.5412 10.74 76.5972 10.564C76.6612 10.388 76.7492 10.208 76.8612 10.024C76.9732 9.832 77.1092 9.68 77.2692 9.568C77.6292 9.32 78.0972 9.196 78.6732 9.196H80.3172L81.8772 9.1V16ZM80.3172 13.816V10.6H79.1292C78.6892 10.6 78.3812 10.768 78.2052 11.104C78.0372 11.44 77.9532 11.944 77.9532 12.616C77.9532 13.28 78.0332 13.748 78.1932 14.02C78.3612 14.292 78.6732 14.428 79.1292 14.428L80.3172 13.816ZM88.8873 16H87.3273V11.62C87.3273 11.228 87.2473 10.96 87.0873 10.816C86.9273 10.672 86.7033 10.6 86.4153 10.6L85.0113 11.188V16H83.4513V9.148H84.6153L84.9753 9.964L86.8953 9.076C87.4313 9.076 87.8953 9.276 88.2873 9.676C88.6873 10.068 88.8873 10.644 88.8873 11.404V16ZM92.0942 14.392C92.2222 14.512 92.2862 14.772 92.2862 15.172C92.2862 15.572 92.2222 15.836 92.0942 15.964C91.9742 16.092 91.7142 16.156 91.3142 16.156C90.9142 16.156 90.6502 16.092 90.5222 15.964C90.3942 15.836 90.3302 15.572 90.3302 15.172C90.3302 14.772 90.3942 14.512 90.5222 14.392C90.6502 14.264 90.9142 14.2 91.3142 14.2C91.7142 14.2 91.9742 14.264 92.0942 14.392ZM94.7813 6.532C95.1573 6.532 95.4013 6.592 95.5133 6.712C95.6253 6.824 95.6813 7.068 95.6813 7.444C95.6813 7.812 95.6213 8.056 95.5013 8.176C95.3893 8.288 95.1453 8.344 94.7693 8.344C94.4013 8.344 94.1573 8.284 94.0373 8.164C93.9253 8.044 93.8693 7.8 93.8693 7.432C93.8693 7.064 93.9253 6.824 94.0373 6.712C94.1573 6.592 94.4053 6.532 94.7813 6.532ZM95.5493 16H93.9893V9.4H95.5493V16ZM101.998 14.104V14.284C101.95 14.884 101.694 15.336 101.23 15.64C100.774 15.944 100.202 16.096 99.514 16.096C98.498 16.096 97.786 15.912 97.378 15.544C97.002 15.208 96.814 14.712 96.814 14.056V13.912H98.23C98.23 14.28 98.326 14.532 98.518 14.668C98.71 14.804 99.042 14.872 99.514 14.872C100.154 14.872 100.474 14.64 100.474 14.176C100.474 13.792 100.362 13.536 100.138 13.408C100.034 13.344 99.902 13.296 99.742 13.264L98.53 13.06C97.474 12.892 96.946 12.232 96.946 11.08C96.946 10.44 97.178 9.944 97.642 9.592C98.114 9.232 98.71 9.052 99.43 9.052C101.07 9.052 101.89 9.76 101.89 11.176V11.332H100.534C100.518 10.956 100.418 10.7 100.234 10.564C100.05 10.428 99.79 10.36 99.454 10.36C99.126 10.36 98.878 10.428 98.71 10.564C98.542 10.692 98.458 10.836 98.458 10.996C98.458 11.452 98.642 11.712 99.01 11.776L100.462 12.04C101.486 12.232 101.998 12.92 101.998 14.104ZM104.95 14.392C105.078 14.512 105.142 14.772 105.142 15.172C105.142 15.572 105.078 15.836 104.95 15.964C104.83 16.092 104.57 16.156 104.17 16.156C103.77 16.156 103.506 16.092 103.378 15.964C103.25 15.836 103.186 15.572 103.186 15.172C103.186 14.772 103.25 14.512 103.378 14.392C103.506 14.264 103.77 14.2 104.17 14.2C104.57 14.2 104.83 14.264 104.95 14.392ZM115.677 16H114.117V11.74C114.117 11.316 114.065 11.02 113.961 10.852C113.865 10.684 113.693 10.6 113.445 10.6L112.041 11.188V16H110.481V11.74C110.481 10.98 110.217 10.6 109.689 10.6L108.405 11.188V16H106.845V9.148H108.009L108.369 9.964L110.169 9.076C110.793 9.076 111.265 9.38 111.585 9.988L113.817 9.076C114.441 9.076 114.905 9.288 115.209 9.712C115.521 10.128 115.677 10.692 115.677 11.404V16ZM122.492 12.94H118.496C118.496 13.564 118.592 14.02 118.784 14.308C118.984 14.596 119.38 14.74 119.972 14.74C120.356 14.74 120.64 14.62 120.824 14.38C121.008 14.132 121.1 13.896 121.1 13.672H122.504C122.504 14.528 122.272 15.156 121.808 15.556C121.352 15.956 120.744 16.156 119.984 16.156C119.232 16.156 118.648 16.048 118.232 15.832C117.376 15.392 116.948 14.224 116.948 12.328C116.948 11.2 117.192 10.376 117.68 9.856C118.168 9.328 118.912 9.064 119.912 9.064C121.648 9.064 122.516 10.028 122.516 11.956C122.516 12.164 122.508 12.492 122.492 12.94ZM118.532 11.872H121.1C121.1 11.344 121 10.96 120.8 10.72C120.6 10.48 120.292 10.36 119.876 10.36C119.468 10.36 119.14 10.484 118.892 10.732C118.652 10.972 118.532 11.352 118.532 11.872Z" fill="black"/>
<path d="M54.26 53.332V53.98C54.26 55.412 53.988 56.452 53.444 57.1C52.908 57.748 52.044 58.072 50.852 58.072C49.66 58.072 48.796 57.748 48.26 57.1C47.732 56.452 47.468 55.4 47.468 53.944V53.32C47.468 51.992 47.736 51.004 48.272 50.356C48.816 49.708 49.672 49.384 50.84 49.384C52.016 49.384 52.88 49.712 53.432 50.368C53.984 51.024 54.26 52.012 54.26 53.332ZM52.592 53.944V53.5C52.592 52.732 52.496 52.12 52.304 51.664C52.08 51.136 51.6 50.872 50.864 50.872C50.12 50.872 49.636 51.136 49.412 51.664C49.228 52.096 49.136 52.708 49.136 53.5V53.944C49.136 54.976 49.28 55.672 49.568 56.032C49.68 56.184 49.844 56.316 50.06 56.428C50.284 56.532 50.548 56.584 50.852 56.584C51.164 56.584 51.428 56.532 51.644 56.428C51.86 56.324 52.028 56.196 52.148 56.044C52.268 55.892 52.36 55.692 52.424 55.444C52.536 55.052 52.592 54.552 52.592 53.944ZM58.5267 58H57.5547C56.9627 58 56.5107 57.824 56.1987 57.472C55.8947 57.12 55.7427 56.7 55.7427 56.212V52.612H55.0827V51.424H55.7427V50.08H57.3027V51.424H58.4067V52.612H57.3027V56.116C57.3027 56.492 57.4827 56.68 57.8427 56.68H58.5267V58ZM65.1094 58H63.5494V53.704C63.5494 52.968 63.2614 52.6 62.6854 52.6L61.1974 53.188V58H59.6374V48.976H61.1974V51.964L63.1774 51.076C63.8814 51.076 64.3774 51.276 64.6654 51.676C64.9614 52.076 65.1094 52.636 65.1094 53.356V58ZM75.4814 58H73.9214V53.74C73.9214 53.316 73.8694 53.02 73.7654 52.852C73.6694 52.684 73.4974 52.6 73.2494 52.6L71.8454 53.188V58H70.2854V53.74C70.2854 52.98 70.0214 52.6 69.4934 52.6L68.2094 53.188V58H66.6494V51.148H67.8134L68.1734 51.964L69.9734 51.076C70.5974 51.076 71.0694 51.38 71.3894 51.988L73.6214 51.076C74.2454 51.076 74.7094 51.288 75.0134 51.712C75.3254 52.128 75.4814 52.692 75.4814 53.404V58ZM81.8772 58H80.8332L80.3532 57.172L78.6852 58.072C77.7572 58.072 77.1332 57.736 76.8132 57.064C76.6532 56.736 76.5412 56.384 76.4772 56.008C76.4212 55.624 76.3932 55.228 76.3932 54.82C76.3932 54.404 76.3972 54.1 76.4052 53.908C76.4132 53.708 76.4332 53.48 76.4652 53.224C76.4972 52.96 76.5412 52.74 76.5972 52.564C76.6612 52.388 76.7492 52.208 76.8612 52.024C76.9732 51.832 77.1092 51.68 77.2692 51.568C77.6292 51.32 78.0972 51.196 78.6732 51.196H80.3172L81.8772 51.1V58ZM80.3172 55.816V52.6H79.1292C78.6892 52.6 78.3812 52.768 78.2052 53.104C78.0372 53.44 77.9532 53.944 77.9532 54.616C77.9532 55.28 78.0332 55.748 78.1932 56.02C78.3612 56.292 78.6732 56.428 79.1292 56.428L80.3172 55.816ZM88.8873 58H87.3273V53.62C87.3273 53.228 87.2473 52.96 87.0873 52.816C86.9273 52.672 86.7033 52.6 86.4153 52.6L85.0113 53.188V58H83.4513V51.148H84.6153L84.9753 51.964L86.8953 51.076C87.4313 51.076 87.8953 51.276 88.2873 51.676C88.6873 52.068 88.8873 52.644 88.8873 53.404V58ZM92.0942 56.392C92.2222 56.512 92.2862 56.772 92.2862 57.172C92.2862 57.572 92.2222 57.836 92.0942 57.964C91.9742 58.092 91.7142 58.156 91.3142 58.156C90.9142 58.156 90.6502 58.092 90.5222 57.964C90.3942 57.836 90.3302 57.572 90.3302 57.172C90.3302 56.772 90.3942 56.512 90.5222 56.392C90.6502 56.264 90.9142 56.2 91.3142 56.2C91.7142 56.2 91.9742 56.264 92.0942 56.392ZM94.7813 48.532C95.1573 48.532 95.4013 48.592 95.5133 48.712C95.6253 48.824 95.6813 49.068 95.6813 49.444C95.6813 49.812 95.6213 50.056 95.5013 50.176C95.3893 50.288 95.1453 50.344 94.7693 50.344C94.4013 50.344 94.1573 50.284 94.0373 50.164C93.9253 50.044 93.8693 49.8 93.8693 49.432C93.8693 49.064 93.9253 48.824 94.0373 48.712C94.1573 48.592 94.4053 48.532 94.7813 48.532ZM95.5493 58H93.9893V51.4H95.5493V58ZM101.998 56.104V56.284C101.95 56.884 101.694 57.336 101.23 57.64C100.774 57.944 100.202 58.096 99.514 58.096C98.498 58.096 97.786 57.912 97.378 57.544C97.002 57.208 96.814 56.712 96.814 56.056V55.912H98.23C98.23 56.28 98.326 56.532 98.518 56.668C98.71 56.804 99.042 56.872 99.514 56.872C100.154 56.872 100.474 56.64 100.474 56.176C100.474 55.792 100.362 55.536 100.138 55.408C100.034 55.344 99.902 55.296 99.742 55.264L98.53 55.06C97.474 54.892 96.946 54.232 96.946 53.08C96.946 52.44 97.178 51.944 97.642 51.592C98.114 51.232 98.71 51.052 99.43 51.052C101.07 51.052 101.89 51.76 101.89 53.176V53.332H100.534C100.518 52.956 100.418 52.7 100.234 52.564C100.05 52.428 99.79 52.36 99.454 52.36C99.126 52.36 98.878 52.428 98.71 52.564C98.542 52.692 98.458 52.836 98.458 52.996C98.458 53.452 98.642 53.712 99.01 53.776L100.462 54.04C101.486 54.232 101.998 54.92 101.998 56.104ZM104.95 56.392C105.078 56.512 105.142 56.772 105.142 57.172C105.142 57.572 105.078 57.836 104.95 57.964C104.83 58.092 104.57 58.156 104.17 58.156C103.77 58.156 103.506 58.092 103.378 57.964C103.25 57.836 103.186 57.572 103.186 57.172C103.186 56.772 103.25 56.512 103.378 56.392C103.506 56.264 103.77 56.2 104.17 56.2C104.57 56.2 104.83 56.264 104.95 56.392ZM115.677 58H114.117V53.74C114.117 53.316 114.065 53.02 113.961 52.852C113.865 52.684 113.693 52.6 113.445 52.6L112.041 53.188V58H110.481V53.74C110.481 52.98 110.217 52.6 109.689 52.6L108.405 53.188V58H106.845V51.148H108.009L108.369 51.964L110.169 51.076C110.793 51.076 111.265 51.38 111.585 51.988L113.817 51.076C114.441 51.076 114.905 51.288 115.209 51.712C115.521 52.128 115.677 52.692 115.677 53.404V58ZM122.492 54.94H118.496C118.496 55.564 118.592 56.02 118.784 56.308C118.984 56.596 119.38 56.74 119.972 56.74C120.356 56.74 120.64 56.62 120.824 56.38C121.008 56.132 121.1 55.896 121.1 55.672H122.504C122.504 56.528 122.272 57.156 121.808 57.556C121.352 57.956 120.744 58.156 119.984 58.156C119.232 58.156 118.648 58.048 118.232 57.832C117.376 57.392 116.948 56.224 116.948 54.328C116.948 53.2 117.192 52.376 117.68 51.856C118.168 51.328 118.912 51.064 119.912 51.064C121.648 51.064 122.516 52.028 122.516 53.956C122.516 54.164 122.508 54.492 122.492 54.94ZM118.532 53.872H121.1C121.1 53.344 121 52.96 120.8 52.72C120.6 52.48 120.292 52.36 119.876 52.36C119.468 52.36 119.14 52.484 118.892 52.732C118.652 52.972 118.532 53.352 118.532 53.872Z" fill="black"/>
<path d="M54.26 96.332V96.98C54.26 98.412 53.988 99.452 53.444 100.1C52.908 100.748 52.044 101.072 50.852 101.072C49.66 101.072 48.796 100.748 48.26 100.1C47.732 99.452 47.468 98.4 47.468 96.944V96.32C47.468 94.992 47.736 94.004 48.272 93.356C48.816 92.708 49.672 92.384 50.84 92.384C52.016 92.384 52.88 92.712 53.432 93.368C53.984 94.024 54.26 95.012 54.26 96.332ZM52.592 96.944V96.5C52.592 95.732 52.496 95.12 52.304 94.664C52.08 94.136 51.6 93.872 50.864 93.872C50.12 93.872 49.636 94.136 49.412 94.664C49.228 95.096 49.136 95.708 49.136 96.5V96.944C49.136 97.976 49.28 98.672 49.568 99.032C49.68 99.184 49.844 99.316 50.06 99.428C50.284 99.532 50.548 99.584 50.852 99.584C51.164 99.584 51.428 99.532 51.644 99.428C51.86 99.324 52.028 99.196 52.148 99.044C52.268 98.892 52.36 98.692 52.424 98.444C52.536 98.052 52.592 97.552 52.592 96.944ZM58.5267 101H57.5547C56.9627 101 56.5107 100.824 56.1987 100.472C55.8947 100.12 55.7427 99.7 55.7427 99.212V95.612H55.0827V94.424H55.7427V93.08H57.3027V94.424H58.4067V95.612H57.3027V99.116C57.3027 99.492 57.4827 99.68 57.8427 99.68H58.5267V101ZM65.1094 101H63.5494V96.704C63.5494 95.968 63.2614 95.6 62.6854 95.6L61.1974 96.188V101H59.6374V91.976H61.1974V94.964L63.1774 94.076C63.8814 94.076 64.3774 94.276 64.6654 94.676C64.9614 95.076 65.1094 95.636 65.1094 96.356V101ZM75.4814 101H73.9214V96.74C73.9214 96.316 73.8694 96.02 73.7654 95.852C73.6694 95.684 73.4974 95.6 73.2494 95.6L71.8454 96.188V101H70.2854V96.74C70.2854 95.98 70.0214 95.6 69.4934 95.6L68.2094 96.188V101H66.6494V94.148H67.8134L68.1734 94.964L69.9734 94.076C70.5974 94.076 71.0694 94.38 71.3894 94.988L73.6214 94.076C74.2454 94.076 74.7094 94.288 75.0134 94.712C75.3254 95.128 75.4814 95.692 75.4814 96.404V101ZM81.8772 101H80.8332L80.3532 100.172L78.6852 101.072C77.7572 101.072 77.1332 100.736 76.8132 100.064C76.6532 99.736 76.5412 99.384 76.4772 99.008C76.4212 98.624 76.3932 98.228 76.3932 97.82C76.3932 97.404 76.3972 97.1 76.4052 96.908C76.4132 96.708 76.4332 96.48 76.4652 96.224C76.4972 95.96 76.5412 95.74 76.5972 95.564C76.6612 95.388 76.7492 95.208 76.8612 95.024C76.9732 94.832 77.1092 94.68 77.2692 94.568C77.6292 94.32 78.0972 94.196 78.6732 94.196H80.3172L81.8772 94.1V101ZM80.3172 98.816V95.6H79.1292C78.6892 95.6 78.3812 95.768 78.2052 96.104C78.0372 96.44 77.9532 96.944 77.9532 97.616C77.9532 98.28 78.0332 98.748 78.1932 99.02C78.3612 99.292 78.6732 99.428 79.1292 99.428L80.3172 98.816ZM88.8873 101H87.3273V96.62C87.3273 96.228 87.2473 95.96 87.0873 95.816C86.9273 95.672 86.7033 95.6 86.4153 95.6L85.0113 96.188V101H83.4513V94.148H84.6153L84.9753 94.964L86.8953 94.076C87.4313 94.076 87.8953 94.276 88.2873 94.676C88.6873 95.068 88.8873 95.644 88.8873 96.404V101ZM92.0942 99.392C92.2222 99.512 92.2862 99.772 92.2862 100.172C92.2862 100.572 92.2222 100.836 92.0942 100.964C91.9742 101.092 91.7142 101.156 91.3142 101.156C90.9142 101.156 90.6502 101.092 90.5222 100.964C90.3942 100.836 90.3302 100.572 90.3302 100.172C90.3302 99.772 90.3942 99.512 90.5222 99.392C90.6502 99.264 90.9142 99.2 91.3142 99.2C91.7142 99.2 91.9742 99.264 92.0942 99.392ZM94.7813 91.532C95.1573 91.532 95.4013 91.592 95.5133 91.712C95.6253 91.824 95.6813 92.068 95.6813 92.444C95.6813 92.812 95.6213 93.056 95.5013 93.176C95.3893 93.288 95.1453 93.344 94.7693 93.344C94.4013 93.344 94.1573 93.284 94.0373 93.164C93.9253 93.044 93.8693 92.8 93.8693 92.432C93.8693 92.064 93.9253 91.824 94.0373 91.712C94.1573 91.592 94.4053 91.532 94.7813 91.532ZM95.5493 101H93.9893V94.4H95.5493V101ZM101.998 99.104V99.284C101.95 99.884 101.694 100.336 101.23 100.64C100.774 100.944 100.202 101.096 99.514 101.096C98.498 101.096 97.786 100.912 97.378 100.544C97.002 100.208 96.814 99.712 96.814 99.056V98.912H98.23C98.23 99.28 98.326 99.532 98.518 99.668C98.71 99.804 99.042 99.872 99.514 99.872C100.154 99.872 100.474 99.64 100.474 99.176C100.474 98.792 100.362 98.536 100.138 98.408C100.034 98.344 99.902 98.296 99.742 98.264L98.53 98.06C97.474 97.892 96.946 97.232 96.946 96.08C96.946 95.44 97.178 94.944 97.642 94.592C98.114 94.232 98.71 94.052 99.43 94.052C101.07 94.052 101.89 94.76 101.89 96.176V96.332H100.534C100.518 95.956 100.418 95.7 100.234 95.564C100.05 95.428 99.79 95.36 99.454 95.36C99.126 95.36 98.878 95.428 98.71 95.564C98.542 95.692 98.458 95.836 98.458 95.996C98.458 96.452 98.642 96.712 99.01 96.776L100.462 97.04C101.486 97.232 101.998 97.92 101.998 99.104ZM104.95 99.392C105.078 99.512 105.142 99.772 105.142 100.172C105.142 100.572 105.078 100.836 104.95 100.964C104.83 101.092 104.57 101.156 104.17 101.156C103.77 101.156 103.506 101.092 103.378 100.964C103.25 100.836 103.186 100.572 103.186 100.172C103.186 99.772 103.25 99.512 103.378 99.392C103.506 99.264 103.77 99.2 104.17 99.2C104.57 99.2 104.83 99.264 104.95 99.392ZM115.677 101H114.117V96.74C114.117 96.316 114.065 96.02 113.961 95.852C113.865 95.684 113.693 95.6 113.445 95.6L112.041 96.188V101H110.481V96.74C110.481 95.98 110.217 95.6 109.689 95.6L108.405 96.188V101H106.845V94.148H108.009L108.369 94.964L110.169 94.076C110.793 94.076 111.265 94.38 111.585 94.988L113.817 94.076C114.441 94.076 114.905 94.288 115.209 94.712C115.521 95.128 115.677 95.692 115.677 96.404V101ZM122.492 97.94H118.496C118.496 98.564 118.592 99.02 118.784 99.308C118.984 99.596 119.38 99.74 119.972 99.74C120.356 99.74 120.64 99.62 120.824 99.38C121.008 99.132 121.1 98.896 121.1 98.672H122.504C122.504 99.528 122.272 100.156 121.808 100.556C121.352 100.956 120.744 101.156 119.984 101.156C119.232 101.156 118.648 101.048 118.232 100.832C117.376 100.392 116.948 99.224 116.948 97.328C116.948 96.2 117.192 95.376 117.68 94.856C118.168 94.328 118.912 94.064 119.912 94.064C121.648 94.064 122.516 95.028 122.516 96.956C122.516 97.164 122.508 97.492 122.492 97.94ZM118.532 96.872H121.1C121.1 96.344 121 95.96 120.8 95.72C120.6 95.48 120.292 95.36 119.876 95.36C119.468 95.36 119.14 95.484 118.892 95.732C118.652 95.972 118.532 96.352 118.532 96.872Z" fill="black"/>
<circle cx="17" cy="17" r="17" fill="#9B55F6"/>
<circle cx="17" cy="59" r="17" fill="#9B55F6"/>
<circle cx="17" cy="101" r="17" fill="#9B55F6"/>
<path d="M52.508 27H51.257V24.408H48.908V27H47.657V20.592H48.908V23.301H51.257V20.592H52.508V27ZM57.6701 24.705H54.6731C54.6731 25.173 54.7451 25.515 54.8891 25.731C55.0391 25.947 55.3361 26.055 55.7801 26.055C56.0681 26.055 56.2811 25.965 56.4191 25.785C56.5571 25.599 56.6261 25.422 56.6261 25.254H57.6791C57.6791 25.896 57.5051 26.367 57.1571 26.667C56.8151 26.967 56.3591 27.117 55.7891 27.117C55.2251 27.117 54.7871 27.036 54.4751 26.874C53.8331 26.544 53.5121 25.668 53.5121 24.246C53.5121 23.4 53.6951 22.782 54.0611 22.392C54.4271 21.996 54.9851 21.798 55.7351 21.798C57.0371 21.798 57.6881 22.521 57.6881 23.967C57.6881 24.123 57.6821 24.369 57.6701 24.705ZM54.7001 23.904H56.6261C56.6261 23.508 56.5511 23.22 56.4011 23.04C56.2511 22.86 56.0201 22.77 55.7081 22.77C55.4021 22.77 55.1561 22.863 54.9701 23.049C54.7901 23.229 54.7001 23.514 54.7001 23.904ZM62.5018 21.861L60.5488 27.576C60.4588 27.834 60.3418 28.035 60.1978 28.179C59.9578 28.419 59.6218 28.539 59.1898 28.539H58.6408V27.486H59.0008C59.1688 27.486 59.2918 27.456 59.3698 27.396C59.4538 27.342 59.5258 27.231 59.5858 27.063L59.6758 26.811L58.1278 21.861H59.3608L60.2788 25.434L61.2688 21.861H62.5018ZM71.4259 21.861L69.9949 27H69.0319L68.0509 23.877L67.0699 27H66.1069L64.6669 21.861H65.9089L66.6649 25.209L67.4479 22.455C67.5379 22.059 67.7419 21.861 68.0599 21.861C68.2099 21.861 68.3299 21.909 68.4199 22.005C68.5099 22.101 68.5849 22.251 68.6449 22.455L69.4369 25.209L70.1929 21.861H71.4259ZM76.086 27H74.916V23.778C74.916 23.226 74.7 22.95 74.268 22.95L73.152 23.391V27H71.982V20.232H73.152V22.473L74.637 21.807C75.165 21.807 75.537 21.957 75.753 22.257C75.975 22.557 76.086 22.977 76.086 23.517V27ZM80.778 27H79.995L79.635 26.379L78.384 27.054C77.688 27.054 77.22 26.802 76.98 26.298C76.86 26.052 76.776 25.788 76.728 25.506C76.686 25.218 76.665 24.921 76.665 24.615C76.665 24.303 76.668 24.075 76.674 23.931C76.68 23.781 76.695 23.61 76.719 23.418C76.743 23.22 76.776 23.055 76.818 22.923C76.866 22.791 76.932 22.656 77.016 22.518C77.1 22.374 77.202 22.26 77.322 22.176C77.592 21.99 77.943 21.897 78.375 21.897H79.608L80.778 21.825V27ZM79.608 25.362V22.95H78.717C78.387 22.95 78.156 23.076 78.024 23.328C77.898 23.58 77.835 23.958 77.835 24.462C77.835 24.96 77.895 25.311 78.015 25.515C78.141 25.719 78.375 25.821 78.717 25.821L79.608 25.362ZM84.2446 27H83.5156C83.0716 27 82.7326 26.868 82.4986 26.604C82.2706 26.34 82.1566 26.025 82.1566 25.659V22.959H81.6616V22.068H82.1566V21.06H83.3266V22.068H84.1546V22.959H83.3266V25.587C83.3266 25.869 83.4616 26.01 83.7316 26.01H84.2446V27ZM88.7407 25.578V25.713C88.7047 26.163 88.5127 26.502 88.1647 26.73C87.8227 26.958 87.3937 27.072 86.8777 27.072C86.1157 27.072 85.5817 26.934 85.2757 26.658C84.9937 26.406 84.8527 26.034 84.8527 25.542V25.434H85.9147C85.9147 25.71 85.9867 25.899 86.1307 26.001C86.2747 26.103 86.5237 26.154 86.8777 26.154C87.3577 26.154 87.5977 25.98 87.5977 25.632C87.5977 25.344 87.5137 25.152 87.3457 25.056C87.2677 25.008 87.1687 24.972 87.0487 24.948L86.1397 24.795C85.3477 24.669 84.9517 24.174 84.9517 23.31C84.9517 22.83 85.1257 22.458 85.4737 22.194C85.8277 21.924 86.2747 21.789 86.8147 21.789C88.0447 21.789 88.6597 22.32 88.6597 23.382V23.499H87.6427C87.6307 23.217 87.5557 23.025 87.4177 22.923C87.2797 22.821 87.0847 22.77 86.8327 22.77C86.5867 22.77 86.4007 22.821 86.2747 22.923C86.1487 23.019 86.0857 23.127 86.0857 23.247C86.0857 23.589 86.2237 23.784 86.4997 23.832L87.5887 24.03C88.3567 24.174 88.7407 24.69 88.7407 25.578ZM93.2495 25.578V25.713C93.2135 26.163 93.0215 26.502 92.6735 26.73C92.3315 26.958 91.9025 27.072 91.3865 27.072C90.6245 27.072 90.0905 26.934 89.7845 26.658C89.5025 26.406 89.3615 26.034 89.3615 25.542V25.434H90.4235C90.4235 25.71 90.4955 25.899 90.6395 26.001C90.7835 26.103 91.0325 26.154 91.3865 26.154C91.8665 26.154 92.1065 25.98 92.1065 25.632C92.1065 25.344 92.0225 25.152 91.8545 25.056C91.7765 25.008 91.6775 24.972 91.5575 24.948L90.6485 24.795C89.8565 24.669 89.4605 24.174 89.4605 23.31C89.4605 22.83 89.6345 22.458 89.9825 22.194C90.3365 21.924 90.7835 21.789 91.3235 21.789C92.5535 21.789 93.1685 22.32 93.1685 23.382V23.499H92.1515C92.1395 23.217 92.0645 23.025 91.9265 22.923C91.7885 22.821 91.5935 22.77 91.3415 22.77C91.0955 22.77 90.9095 22.821 90.7835 22.923C90.6575 23.019 90.5945 23.127 90.5945 23.247C90.5945 23.589 90.7325 23.784 91.0085 23.832L92.0975 24.03C92.8655 24.174 93.2495 24.69 93.2495 25.578ZM98.0732 27H97.2002L96.9302 26.388L95.4902 27.054C95.0882 27.054 94.7372 26.907 94.4372 26.613C94.1432 26.313 93.9962 25.878 93.9962 25.308V21.861H95.1662V25.056C95.1662 25.626 95.3942 25.911 95.8502 25.911L96.9032 25.344V21.861H98.0732V27ZM103.493 24.291C103.493 25.629 103.148 26.484 102.458 26.856C102.176 27.006 101.831 27.081 101.423 27.081L100.559 26.523V28.53H99.3894V21.897H101.693C102.389 21.897 102.863 22.095 103.115 22.491C103.367 22.881 103.493 23.481 103.493 24.291ZM102.323 24.471C102.323 23.457 101.999 22.95 101.351 22.95H100.559V25.335L101.351 25.848C101.699 25.848 101.948 25.74 102.098 25.524C102.248 25.302 102.323 24.951 102.323 24.471Z" fill="#979797"/>
<path d="M52.508 27H51.257V24.408H48.908V27H47.657V20.592H48.908V23.301H51.257V20.592H52.508V27ZM57.6701 24.705H54.6731C54.6731 25.173 54.7451 25.515 54.8891 25.731C55.0391 25.947 55.3361 26.055 55.7801 26.055C56.0681 26.055 56.2811 25.965 56.4191 25.785C56.5571 25.599 56.6261 25.422 56.6261 25.254H57.6791C57.6791 25.896 57.5051 26.367 57.1571 26.667C56.8151 26.967 56.3591 27.117 55.7891 27.117C55.2251 27.117 54.7871 27.036 54.4751 26.874C53.8331 26.544 53.5121 25.668 53.5121 24.246C53.5121 23.4 53.6951 22.782 54.0611 22.392C54.4271 21.996 54.9851 21.798 55.7351 21.798C57.0371 21.798 57.6881 22.521 57.6881 23.967C57.6881 24.123 57.6821 24.369 57.6701 24.705ZM54.7001 23.904H56.6261C56.6261 23.508 56.5511 23.22 56.4011 23.04C56.2511 22.86 56.0201 22.77 55.7081 22.77C55.4021 22.77 55.1561 22.863 54.9701 23.049C54.7901 23.229 54.7001 23.514 54.7001 23.904ZM62.5018 21.861L60.5488 27.576C60.4588 27.834 60.3418 28.035 60.1978 28.179C59.9578 28.419 59.6218 28.539 59.1898 28.539H58.6408V27.486H59.0008C59.1688 27.486 59.2918 27.456 59.3698 27.396C59.4538 27.342 59.5258 27.231 59.5858 27.063L59.6758 26.811L58.1278 21.861H59.3608L60.2788 25.434L61.2688 21.861H62.5018ZM71.4259 21.861L69.9949 27H69.0319L68.0509 23.877L67.0699 27H66.1069L64.6669 21.861H65.9089L66.6649 25.209L67.4479 22.455C67.5379 22.059 67.7419 21.861 68.0599 21.861C68.2099 21.861 68.3299 21.909 68.4199 22.005C68.5099 22.101 68.5849 22.251 68.6449 22.455L69.4369 25.209L70.1929 21.861H71.4259ZM76.086 27H74.916V23.778C74.916 23.226 74.7 22.95 74.268 22.95L73.152 23.391V27H71.982V20.232H73.152V22.473L74.637 21.807C75.165 21.807 75.537 21.957 75.753 22.257C75.975 22.557 76.086 22.977 76.086 23.517V27ZM80.778 27H79.995L79.635 26.379L78.384 27.054C77.688 27.054 77.22 26.802 76.98 26.298C76.86 26.052 76.776 25.788 76.728 25.506C76.686 25.218 76.665 24.921 76.665 24.615C76.665 24.303 76.668 24.075 76.674 23.931C76.68 23.781 76.695 23.61 76.719 23.418C76.743 23.22 76.776 23.055 76.818 22.923C76.866 22.791 76.932 22.656 77.016 22.518C77.1 22.374 77.202 22.26 77.322 22.176C77.592 21.99 77.943 21.897 78.375 21.897H79.608L80.778 21.825V27ZM79.608 25.362V22.95H78.717C78.387 22.95 78.156 23.076 78.024 23.328C77.898 23.58 77.835 23.958 77.835 24.462C77.835 24.96 77.895 25.311 78.015 25.515C78.141 25.719 78.375 25.821 78.717 25.821L79.608 25.362ZM84.2446 27H83.5156C83.0716 27 82.7326 26.868 82.4986 26.604C82.2706 26.34 82.1566 26.025 82.1566 25.659V22.959H81.6616V22.068H82.1566V21.06H83.3266V22.068H84.1546V22.959H83.3266V25.587C83.3266 25.869 83.4616 26.01 83.7316 26.01H84.2446V27ZM88.7407 25.578V25.713C88.7047 26.163 88.5127 26.502 88.1647 26.73C87.8227 26.958 87.3937 27.072 86.8777 27.072C86.1157 27.072 85.5817 26.934 85.2757 26.658C84.9937 26.406 84.8527 26.034 84.8527 25.542V25.434H85.9147C85.9147 25.71 85.9867 25.899 86.1307 26.001C86.2747 26.103 86.5237 26.154 86.8777 26.154C87.3577 26.154 87.5977 25.98 87.5977 25.632C87.5977 25.344 87.5137 25.152 87.3457 25.056C87.2677 25.008 87.1687 24.972 87.0487 24.948L86.1397 24.795C85.3477 24.669 84.9517 24.174 84.9517 23.31C84.9517 22.83 85.1257 22.458 85.4737 22.194C85.8277 21.924 86.2747 21.789 86.8147 21.789C88.0447 21.789 88.6597 22.32 88.6597 23.382V23.499H87.6427C87.6307 23.217 87.5557 23.025 87.4177 22.923C87.2797 22.821 87.0847 22.77 86.8327 22.77C86.5867 22.77 86.4007 22.821 86.2747 22.923C86.1487 23.019 86.0857 23.127 86.0857 23.247C86.0857 23.589 86.2237 23.784 86.4997 23.832L87.5887 24.03C88.3567 24.174 88.7407 24.69 88.7407 25.578ZM93.2495 25.578V25.713C93.2135 26.163 93.0215 26.502 92.6735 26.73C92.3315 26.958 91.9025 27.072 91.3865 27.072C90.6245 27.072 90.0905 26.934 89.7845 26.658C89.5025 26.406 89.3615 26.034 89.3615 25.542V25.434H90.4235C90.4235 25.71 90.4955 25.899 90.6395 26.001C90.7835 26.103 91.0325 26.154 91.3865 26.154C91.8665 26.154 92.1065 25.98 92.1065 25.632C92.1065 25.344 92.0225 25.152 91.8545 25.056C91.7765 25.008 91.6775 24.972 91.5575 24.948L90.6485 24.795C89.8565 24.669 89.4605 24.174 89.4605 23.31C89.4605 22.83 89.6345 22.458 89.9825 22.194C90.3365 21.924 90.7835 21.789 91.3235 21.789C92.5535 21.789 93.1685 22.32 93.1685 23.382V23.499H92.1515C92.1395 23.217 92.0645 23.025 91.9265 22.923C91.7885 22.821 91.5935 22.77 91.3415 22.77C91.0955 22.77 90.9095 22.821 90.7835 22.923C90.6575 23.019 90.5945 23.127 90.5945 23.247C90.5945 23.589 90.7325 23.784 91.0085 23.832L92.0975 24.03C92.8655 24.174 93.2495 24.69 93.2495 25.578ZM98.0732 27H97.2002L96.9302 26.388L95.4902 27.054C95.0882 27.054 94.7372 26.907 94.4372 26.613C94.1432 26.313 93.9962 25.878 93.9962 25.308V21.861H95.1662V25.056C95.1662 25.626 95.3942 25.911 95.8502 25.911L96.9032 25.344V21.861H98.0732V27ZM103.493 24.291C103.493 25.629 103.148 26.484 102.458 26.856C102.176 27.006 101.831 27.081 101.423 27.081L100.559 26.523V28.53H99.3894V21.897H101.693C102.389 21.897 102.863 22.095 103.115 22.491C103.367 22.881 103.493 23.481 103.493 24.291ZM102.323 24.471C102.323 23.457 101.999 22.95 101.351 22.95H100.559V25.335L101.351 25.848C101.699 25.848 101.948 25.74 102.098 25.524C102.248 25.302 102.323 24.951 102.323 24.471Z" fill="#979797"/>
<path d="M52.508 68H51.257V65.408H48.908V68H47.657V61.592H48.908V64.301H51.257V61.592H52.508V68ZM57.6701 65.705H54.6731C54.6731 66.173 54.7451 66.515 54.8891 66.731C55.0391 66.947 55.3361 67.055 55.7801 67.055C56.0681 67.055 56.2811 66.965 56.4191 66.785C56.5571 66.599 56.6261 66.422 56.6261 66.254H57.6791C57.6791 66.896 57.5051 67.367 57.1571 67.667C56.8151 67.967 56.3591 68.117 55.7891 68.117C55.2251 68.117 54.7871 68.036 54.4751 67.874C53.8331 67.544 53.5121 66.668 53.5121 65.246C53.5121 64.4 53.6951 63.782 54.0611 63.392C54.4271 62.996 54.9851 62.798 55.7351 62.798C57.0371 62.798 57.6881 63.521 57.6881 64.967C57.6881 65.123 57.6821 65.369 57.6701 65.705ZM54.7001 64.904H56.6261C56.6261 64.508 56.5511 64.22 56.4011 64.04C56.2511 63.86 56.0201 63.77 55.7081 63.77C55.4021 63.77 55.1561 63.863 54.9701 64.049C54.7901 64.229 54.7001 64.514 54.7001 64.904ZM62.5018 62.861L60.5488 68.576C60.4588 68.834 60.3418 69.035 60.1978 69.179C59.9578 69.419 59.6218 69.539 59.1898 69.539H58.6408V68.486H59.0008C59.1688 68.486 59.2918 68.456 59.3698 68.396C59.4538 68.342 59.5258 68.231 59.5858 68.063L59.6758 67.811L58.1278 62.861H59.3608L60.2788 66.434L61.2688 62.861H62.5018ZM71.4259 62.861L69.9949 68H69.0319L68.0509 64.877L67.0699 68H66.1069L64.6669 62.861H65.9089L66.6649 66.209L67.4479 63.455C67.5379 63.059 67.7419 62.861 68.0599 62.861C68.2099 62.861 68.3299 62.909 68.4199 63.005C68.5099 63.101 68.5849 63.251 68.6449 63.455L69.4369 66.209L70.1929 62.861H71.4259ZM76.086 68H74.916V64.778C74.916 64.226 74.7 63.95 74.268 63.95L73.152 64.391V68H71.982V61.232H73.152V63.473L74.637 62.807C75.165 62.807 75.537 62.957 75.753 63.257C75.975 63.557 76.086 63.977 76.086 64.517V68ZM80.778 68H79.995L79.635 67.379L78.384 68.054C77.688 68.054 77.22 67.802 76.98 67.298C76.86 67.052 76.776 66.788 76.728 66.506C76.686 66.218 76.665 65.921 76.665 65.615C76.665 65.303 76.668 65.075 76.674 64.931C76.68 64.781 76.695 64.61 76.719 64.418C76.743 64.22 76.776 64.055 76.818 63.923C76.866 63.791 76.932 63.656 77.016 63.518C77.1 63.374 77.202 63.26 77.322 63.176C77.592 62.99 77.943 62.897 78.375 62.897H79.608L80.778 62.825V68ZM79.608 66.362V63.95H78.717C78.387 63.95 78.156 64.076 78.024 64.328C77.898 64.58 77.835 64.958 77.835 65.462C77.835 65.96 77.895 66.311 78.015 66.515C78.141 66.719 78.375 66.821 78.717 66.821L79.608 66.362ZM84.2446 68H83.5156C83.0716 68 82.7326 67.868 82.4986 67.604C82.2706 67.34 82.1566 67.025 82.1566 66.659V63.959H81.6616V63.068H82.1566V62.06H83.3266V63.068H84.1546V63.959H83.3266V66.587C83.3266 66.869 83.4616 67.01 83.7316 67.01H84.2446V68ZM88.7407 66.578V66.713C88.7047 67.163 88.5127 67.502 88.1647 67.73C87.8227 67.958 87.3937 68.072 86.8777 68.072C86.1157 68.072 85.5817 67.934 85.2757 67.658C84.9937 67.406 84.8527 67.034 84.8527 66.542V66.434H85.9147C85.9147 66.71 85.9867 66.899 86.1307 67.001C86.2747 67.103 86.5237 67.154 86.8777 67.154C87.3577 67.154 87.5977 66.98 87.5977 66.632C87.5977 66.344 87.5137 66.152 87.3457 66.056C87.2677 66.008 87.1687 65.972 87.0487 65.948L86.1397 65.795C85.3477 65.669 84.9517 65.174 84.9517 64.31C84.9517 63.83 85.1257 63.458 85.4737 63.194C85.8277 62.924 86.2747 62.789 86.8147 62.789C88.0447 62.789 88.6597 63.32 88.6597 64.382V64.499H87.6427C87.6307 64.217 87.5557 64.025 87.4177 63.923C87.2797 63.821 87.0847 63.77 86.8327 63.77C86.5867 63.77 86.4007 63.821 86.2747 63.923C86.1487 64.019 86.0857 64.127 86.0857 64.247C86.0857 64.589 86.2237 64.784 86.4997 64.832L87.5887 65.03C88.3567 65.174 88.7407 65.69 88.7407 66.578ZM93.2495 66.578V66.713C93.2135 67.163 93.0215 67.502 92.6735 67.73C92.3315 67.958 91.9025 68.072 91.3865 68.072C90.6245 68.072 90.0905 67.934 89.7845 67.658C89.5025 67.406 89.3615 67.034 89.3615 66.542V66.434H90.4235C90.4235 66.71 90.4955 66.899 90.6395 67.001C90.7835 67.103 91.0325 67.154 91.3865 67.154C91.8665 67.154 92.1065 66.98 92.1065 66.632C92.1065 66.344 92.0225 66.152 91.8545 66.056C91.7765 66.008 91.6775 65.972 91.5575 65.948L90.6485 65.795C89.8565 65.669 89.4605 65.174 89.4605 64.31C89.4605 63.83 89.6345 63.458 89.9825 63.194C90.3365 62.924 90.7835 62.789 91.3235 62.789C92.5535 62.789 93.1685 63.32 93.1685 64.382V64.499H92.1515C92.1395 64.217 92.0645 64.025 91.9265 63.923C91.7885 63.821 91.5935 63.77 91.3415 63.77C91.0955 63.77 90.9095 63.821 90.7835 63.923C90.6575 64.019 90.5945 64.127 90.5945 64.247C90.5945 64.589 90.7325 64.784 91.0085 64.832L92.0975 65.03C92.8655 65.174 93.2495 65.69 93.2495 66.578ZM98.0732 68H97.2002L96.9302 67.388L95.4902 68.054C95.0882 68.054 94.7372 67.907 94.4372 67.613C94.1432 67.313 93.9962 66.878 93.9962 66.308V62.861H95.1662V66.056C95.1662 66.626 95.3942 66.911 95.8502 66.911L96.9032 66.344V62.861H98.0732V68ZM103.493 65.291C103.493 66.629 103.148 67.484 102.458 67.856C102.176 68.006 101.831 68.081 101.423 68.081L100.559 67.523V69.53H99.3894V62.897H101.693C102.389 62.897 102.863 63.095 103.115 63.491C103.367 63.881 103.493 64.481 103.493 65.291ZM102.323 65.471C102.323 64.457 101.999 63.95 101.351 63.95H100.559V66.335L101.351 66.848C101.699 66.848 101.948 66.74 102.098 66.524C102.248 66.302 102.323 65.951 102.323 65.471Z" fill="#979797"/>
<path d="M52.508 112H51.257V109.408H48.908V112H47.657V105.592H48.908V108.301H51.257V105.592H52.508V112ZM57.6701 109.705H54.6731C54.6731 110.173 54.7451 110.515 54.8891 110.731C55.0391 110.947 55.3361 111.055 55.7801 111.055C56.0681 111.055 56.2811 110.965 56.4191 110.785C56.5571 110.599 56.6261 110.422 56.6261 110.254H57.6791C57.6791 110.896 57.5051 111.367 57.1571 111.667C56.8151 111.967 56.3591 112.117 55.7891 112.117C55.2251 112.117 54.7871 112.036 54.4751 111.874C53.8331 111.544 53.5121 110.668 53.5121 109.246C53.5121 108.4 53.6951 107.782 54.0611 107.392C54.4271 106.996 54.9851 106.798 55.7351 106.798C57.0371 106.798 57.6881 107.521 57.6881 108.967C57.6881 109.123 57.6821 109.369 57.6701 109.705ZM54.7001 108.904H56.6261C56.6261 108.508 56.5511 108.22 56.4011 108.04C56.2511 107.86 56.0201 107.77 55.7081 107.77C55.4021 107.77 55.1561 107.863 54.9701 108.049C54.7901 108.229 54.7001 108.514 54.7001 108.904ZM62.5018 106.861L60.5488 112.576C60.4588 112.834 60.3418 113.035 60.1978 113.179C59.9578 113.419 59.6218 113.539 59.1898 113.539H58.6408V112.486H59.0008C59.1688 112.486 59.2918 112.456 59.3698 112.396C59.4538 112.342 59.5258 112.231 59.5858 112.063L59.6758 111.811L58.1278 106.861H59.3608L60.2788 110.434L61.2688 106.861H62.5018ZM71.4259 106.861L69.9949 112H69.0319L68.0509 108.877L67.0699 112H66.1069L64.6669 106.861H65.9089L66.6649 110.209L67.4479 107.455C67.5379 107.059 67.7419 106.861 68.0599 106.861C68.2099 106.861 68.3299 106.909 68.4199 107.005C68.5099 107.101 68.5849 107.251 68.6449 107.455L69.4369 110.209L70.1929 106.861H71.4259ZM76.086 112H74.916V108.778C74.916 108.226 74.7 107.95 74.268 107.95L73.152 108.391V112H71.982V105.232H73.152V107.473L74.637 106.807C75.165 106.807 75.537 106.957 75.753 107.257C75.975 107.557 76.086 107.977 76.086 108.517V112ZM80.778 112H79.995L79.635 111.379L78.384 112.054C77.688 112.054 77.22 111.802 76.98 111.298C76.86 111.052 76.776 110.788 76.728 110.506C76.686 110.218 76.665 109.921 76.665 109.615C76.665 109.303 76.668 109.075 76.674 108.931C76.68 108.781 76.695 108.61 76.719 108.418C76.743 108.22 76.776 108.055 76.818 107.923C76.866 107.791 76.932 107.656 77.016 107.518C77.1 107.374 77.202 107.26 77.322 107.176C77.592 106.99 77.943 106.897 78.375 106.897H79.608L80.778 106.825V112ZM79.608 110.362V107.95H78.717C78.387 107.95 78.156 108.076 78.024 108.328C77.898 108.58 77.835 108.958 77.835 109.462C77.835 109.96 77.895 110.311 78.015 110.515C78.141 110.719 78.375 110.821 78.717 110.821L79.608 110.362ZM84.2446 112H83.5156C83.0716 112 82.7326 111.868 82.4986 111.604C82.2706 111.34 82.1566 111.025 82.1566 110.659V107.959H81.6616V107.068H82.1566V106.06H83.3266V107.068H84.1546V107.959H83.3266V110.587C83.3266 110.869 83.4616 111.01 83.7316 111.01H84.2446V112ZM88.7407 110.578V110.713C88.7047 111.163 88.5127 111.502 88.1647 111.73C87.8227 111.958 87.3937 112.072 86.8777 112.072C86.1157 112.072 85.5817 111.934 85.2757 111.658C84.9937 111.406 84.8527 111.034 84.8527 110.542V110.434H85.9147C85.9147 110.71 85.9867 110.899 86.1307 111.001C86.2747 111.103 86.5237 111.154 86.8777 111.154C87.3577 111.154 87.5977 110.98 87.5977 110.632C87.5977 110.344 87.5137 110.152 87.3457 110.056C87.2677 110.008 87.1687 109.972 87.0487 109.948L86.1397 109.795C85.3477 109.669 84.9517 109.174 84.9517 108.31C84.9517 107.83 85.1257 107.458 85.4737 107.194C85.8277 106.924 86.2747 106.789 86.8147 106.789C88.0447 106.789 88.6597 107.32 88.6597 108.382V108.499H87.6427C87.6307 108.217 87.5557 108.025 87.4177 107.923C87.2797 107.821 87.0847 107.77 86.8327 107.77C86.5867 107.77 86.4007 107.821 86.2747 107.923C86.1487 108.019 86.0857 108.127 86.0857 108.247C86.0857 108.589 86.2237 108.784 86.4997 108.832L87.5887 109.03C88.3567 109.174 88.7407 109.69 88.7407 110.578ZM93.2495 110.578V110.713C93.2135 111.163 93.0215 111.502 92.6735 111.73C92.3315 111.958 91.9025 112.072 91.3865 112.072C90.6245 112.072 90.0905 111.934 89.7845 111.658C89.5025 111.406 89.3615 111.034 89.3615 110.542V110.434H90.4235C90.4235 110.71 90.4955 110.899 90.6395 111.001C90.7835 111.103 91.0325 111.154 91.3865 111.154C91.8665 111.154 92.1065 110.98 92.1065 110.632C92.1065 110.344 92.0225 110.152 91.8545 110.056C91.7765 110.008 91.6775 109.972 91.5575 109.948L90.6485 109.795C89.8565 109.669 89.4605 109.174 89.4605 108.31C89.4605 107.83 89.6345 107.458 89.9825 107.194C90.3365 106.924 90.7835 106.789 91.3235 106.789C92.5535 106.789 93.1685 107.32 93.1685 108.382V108.499H92.1515C92.1395 108.217 92.0645 108.025 91.9265 107.923C91.7885 107.821 91.5935 107.77 91.3415 107.77C91.0955 107.77 90.9095 107.821 90.7835 107.923C90.6575 108.019 90.5945 108.127 90.5945 108.247C90.5945 108.589 90.7325 108.784 91.0085 108.832L92.0975 109.03C92.8655 109.174 93.2495 109.69 93.2495 110.578ZM98.0732 112H97.2002L96.9302 111.388L95.4902 112.054C95.0882 112.054 94.7372 111.907 94.4372 111.613C94.1432 111.313 93.9962 110.878 93.9962 110.308V106.861H95.1662V110.056C95.1662 110.626 95.3942 110.911 95.8502 110.911L96.9032 110.344V106.861H98.0732V112ZM103.493 109.291C103.493 110.629 103.148 111.484 102.458 111.856C102.176 112.006 101.831 112.081 101.423 112.081L100.559 111.523V113.53H99.3894V106.897H101.693C102.389 106.897 102.863 107.095 103.115 107.491C103.367 107.881 103.493 108.481 103.493 109.291ZM102.323 109.471C102.323 108.457 101.999 107.95 101.351 107.95H100.559V110.335L101.351 110.848C101.699 110.848 101.948 110.74 102.098 110.524C102.248 110.302 102.323 109.951 102.323 109.471Z" fill="#979797"/>
<path d="M288.925 99H287.701V93.744L286.918 93.456V92.583H287.98C288.376 92.583 288.631 92.655 288.745 92.799C288.865 92.943 288.925 93.228 288.925 93.654V99ZM294.68 95.616V95.985C294.68 96.429 294.665 96.801 294.635 97.101C294.605 97.401 294.545 97.683 294.455 97.947C294.365 98.211 294.239 98.421 294.077 98.577C293.915 98.727 293.702 98.844 293.438 98.928C293.18 99.012 292.865 99.054 292.493 99.054C292.121 99.054 291.803 99.012 291.539 98.928C291.281 98.838 291.071 98.718 290.909 98.568C290.747 98.418 290.621 98.211 290.531 97.947C290.441 97.677 290.381 97.392 290.351 97.092C290.321 96.792 290.306 96.417 290.306 95.967V95.625C290.306 94.701 290.378 94.02 290.522 93.582C290.612 93.318 290.738 93.114 290.9 92.97C291.242 92.682 291.773 92.538 292.493 92.538C293.333 92.538 293.906 92.766 294.212 93.222C294.524 93.678 294.68 94.476 294.68 95.616ZM293.474 96.264V95.265C293.468 94.671 293.402 94.254 293.276 94.014C293.15 93.774 292.889 93.654 292.493 93.654C292.097 93.654 291.836 93.774 291.71 94.014C291.584 94.248 291.518 94.653 291.512 95.229V96.264C291.518 96.906 291.581 97.347 291.701 97.587C291.821 97.821 292.088 97.938 292.502 97.938C292.916 97.938 293.18 97.824 293.294 97.596C293.408 97.368 293.468 96.924 293.474 96.264ZM297.195 97.794C297.291 97.884 297.339 98.079 297.339 98.379C297.339 98.679 297.291 98.877 297.195 98.973C297.105 99.069 296.91 99.117 296.61 99.117C296.31 99.117 296.112 99.069 296.016 98.973C295.92 98.877 295.872 98.679 295.872 98.379C295.872 98.079 295.92 97.884 296.016 97.794C296.112 97.698 296.31 97.65 296.61 97.65C296.91 97.65 297.105 97.698 297.195 97.794ZM297.177 95.292C297.273 95.382 297.321 95.577 297.321 95.877C297.321 96.177 297.273 96.375 297.177 96.471C297.087 96.567 296.892 96.615 296.592 96.615C296.292 96.615 296.094 96.567 295.998 96.471C295.902 96.375 295.854 96.177 295.854 95.877C295.854 95.577 295.902 95.382 295.998 95.292C296.094 95.196 296.292 95.148 296.592 95.148C296.892 95.148 297.087 95.196 297.177 95.292ZM300.852 99H299.628V93.744L298.845 93.456V92.583H299.907C300.303 92.583 300.558 92.655 300.672 92.799C300.792 92.943 300.852 93.228 300.852 93.654V99ZM302.566 92.7H305.959V93.699H303.718V94.707C304.642 94.707 305.275 94.896 305.617 95.274C305.965 95.652 306.139 96.204 306.139 96.93C306.139 98.346 305.455 99.054 304.087 99.054C303.457 99.054 302.983 98.889 302.665 98.559C302.353 98.229 302.197 97.788 302.197 97.236H303.34C303.34 97.338 303.352 97.44 303.376 97.542C303.406 97.638 303.478 97.737 303.592 97.839C303.706 97.935 303.859 97.983 304.051 97.983C304.369 97.983 304.6 97.896 304.744 97.722C304.894 97.542 304.969 97.332 304.969 97.092C304.969 96.852 304.951 96.663 304.915 96.525C304.885 96.387 304.816 96.246 304.708 96.102C304.492 95.802 304.009 95.652 303.259 95.652H302.566V92.7ZM314.529 99H313.224L312.864 97.893H310.713L310.362 99H309.057L311.109 93.132C311.199 92.928 311.298 92.787 311.406 92.709C311.52 92.631 311.658 92.592 311.82 92.592C311.982 92.592 312.111 92.628 312.207 92.7C312.309 92.772 312.399 92.916 312.477 93.132L314.529 99ZM312.576 96.84L311.82 94.302L311.028 96.84H312.576ZM320.142 95.175L318.99 97.605C318.822 97.929 318.612 98.091 318.36 98.091C318.114 98.091 317.907 97.92 317.739 97.578L316.569 95.175V99H315.318V92.592H316.551L318.36 96.291L320.16 92.592H321.393V99H320.142V95.175Z" fill="#979797"/>
<path d="M288.925 56H287.701V50.744L286.918 50.456V49.583H287.98C288.376 49.583 288.631 49.655 288.745 49.799C288.865 49.943 288.925 50.228 288.925 50.654V56ZM294.68 52.616V52.985C294.68 53.429 294.665 53.801 294.635 54.101C294.605 54.401 294.545 54.683 294.455 54.947C294.365 55.211 294.239 55.421 294.077 55.577C293.915 55.727 293.702 55.844 293.438 55.928C293.18 56.012 292.865 56.054 292.493 56.054C292.121 56.054 291.803 56.012 291.539 55.928C291.281 55.838 291.071 55.718 290.909 55.568C290.747 55.418 290.621 55.211 290.531 54.947C290.441 54.677 290.381 54.392 290.351 54.092C290.321 53.792 290.306 53.417 290.306 52.967V52.625C290.306 51.701 290.378 51.02 290.522 50.582C290.612 50.318 290.738 50.114 290.9 49.97C291.242 49.682 291.773 49.538 292.493 49.538C293.333 49.538 293.906 49.766 294.212 50.222C294.524 50.678 294.68 51.476 294.68 52.616ZM293.474 53.264V52.265C293.468 51.671 293.402 51.254 293.276 51.014C293.15 50.774 292.889 50.654 292.493 50.654C292.097 50.654 291.836 50.774 291.71 51.014C291.584 51.248 291.518 51.653 291.512 52.229V53.264C291.518 53.906 291.581 54.347 291.701 54.587C291.821 54.821 292.088 54.938 292.502 54.938C292.916 54.938 293.18 54.824 293.294 54.596C293.408 54.368 293.468 53.924 293.474 53.264ZM297.195 54.794C297.291 54.884 297.339 55.079 297.339 55.379C297.339 55.679 297.291 55.877 297.195 55.973C297.105 56.069 296.91 56.117 296.61 56.117C296.31 56.117 296.112 56.069 296.016 55.973C295.92 55.877 295.872 55.679 295.872 55.379C295.872 55.079 295.92 54.884 296.016 54.794C296.112 54.698 296.31 54.65 296.61 54.65C296.91 54.65 297.105 54.698 297.195 54.794ZM297.177 52.292C297.273 52.382 297.321 52.577 297.321 52.877C297.321 53.177 297.273 53.375 297.177 53.471C297.087 53.567 296.892 53.615 296.592 53.615C296.292 53.615 296.094 53.567 295.998 53.471C295.902 53.375 295.854 53.177 295.854 52.877C295.854 52.577 295.902 52.382 295.998 52.292C296.094 52.196 296.292 52.148 296.592 52.148C296.892 52.148 297.087 52.196 297.177 52.292ZM300.852 56H299.628V50.744L298.845 50.456V49.583H299.907C300.303 49.583 300.558 49.655 300.672 49.799C300.792 49.943 300.852 50.228 300.852 50.654V56ZM302.566 49.7H305.959V50.699H303.718V51.707C304.642 51.707 305.275 51.896 305.617 52.274C305.965 52.652 306.139 53.204 306.139 53.93C306.139 55.346 305.455 56.054 304.087 56.054C303.457 56.054 302.983 55.889 302.665 55.559C302.353 55.229 302.197 54.788 302.197 54.236H303.34C303.34 54.338 303.352 54.44 303.376 54.542C303.406 54.638 303.478 54.737 303.592 54.839C303.706 54.935 303.859 54.983 304.051 54.983C304.369 54.983 304.6 54.896 304.744 54.722C304.894 54.542 304.969 54.332 304.969 54.092C304.969 53.852 304.951 53.663 304.915 53.525C304.885 53.387 304.816 53.246 304.708 53.102C304.492 52.802 304.009 52.652 303.259 52.652H302.566V49.7ZM314.529 56H313.224L312.864 54.893H310.713L310.362 56H309.057L311.109 50.132C311.199 49.928 311.298 49.787 311.406 49.709C311.52 49.631 311.658 49.592 311.82 49.592C311.982 49.592 312.111 49.628 312.207 49.7C312.309 49.772 312.399 49.916 312.477 50.132L314.529 56ZM312.576 53.84L311.82 51.302L311.028 53.84H312.576ZM320.142 52.175L318.99 54.605C318.822 54.929 318.612 55.091 318.36 55.091C318.114 55.091 317.907 54.92 317.739 54.578L316.569 52.175V56H315.318V49.592H316.551L318.36 53.291L320.16 49.592H321.393V56H320.142V52.175Z" fill="#979797"/>
<path d="M288.925 13H287.701V7.744L286.918 7.456V6.583H287.98C288.376 6.583 288.631 6.655 288.745 6.799C288.865 6.943 288.925 7.228 288.925 7.654V13ZM294.68 9.616V9.985C294.68 10.429 294.665 10.801 294.635 11.101C294.605 11.401 294.545 11.683 294.455 11.947C294.365 12.211 294.239 12.421 294.077 12.577C293.915 12.727 293.702 12.844 293.438 12.928C293.18 13.012 292.865 13.054 292.493 13.054C292.121 13.054 291.803 13.012 291.539 12.928C291.281 12.838 291.071 12.718 290.909 12.568C290.747 12.418 290.621 12.211 290.531 11.947C290.441 11.677 290.381 11.392 290.351 11.092C290.321 10.792 290.306 10.417 290.306 9.967V9.625C290.306 8.701 290.378 8.02 290.522 7.582C290.612 7.318 290.738 7.114 290.9 6.97C291.242 6.682 291.773 6.538 292.493 6.538C293.333 6.538 293.906 6.766 294.212 7.222C294.524 7.678 294.68 8.476 294.68 9.616ZM293.474 10.264V9.265C293.468 8.671 293.402 8.254 293.276 8.014C293.15 7.774 292.889 7.654 292.493 7.654C292.097 7.654 291.836 7.774 291.71 8.014C291.584 8.248 291.518 8.653 291.512 9.229V10.264C291.518 10.906 291.581 11.347 291.701 11.587C291.821 11.821 292.088 11.938 292.502 11.938C292.916 11.938 293.18 11.824 293.294 11.596C293.408 11.368 293.468 10.924 293.474 10.264ZM297.195 11.794C297.291 11.884 297.339 12.079 297.339 12.379C297.339 12.679 297.291 12.877 297.195 12.973C297.105 13.069 296.91 13.117 296.61 13.117C296.31 13.117 296.112 13.069 296.016 12.973C295.92 12.877 295.872 12.679 295.872 12.379C295.872 12.079 295.92 11.884 296.016 11.794C296.112 11.698 296.31 11.65 296.61 11.65C296.91 11.65 297.105 11.698 297.195 11.794ZM297.177 9.292C297.273 9.382 297.321 9.577 297.321 9.877C297.321 10.177 297.273 10.375 297.177 10.471C297.087 10.567 296.892 10.615 296.592 10.615C296.292 10.615 296.094 10.567 295.998 10.471C295.902 10.375 295.854 10.177 295.854 9.877C295.854 9.577 295.902 9.382 295.998 9.292C296.094 9.196 296.292 9.148 296.592 9.148C296.892 9.148 297.087 9.196 297.177 9.292ZM300.852 13H299.628V7.744L298.845 7.456V6.583H299.907C300.303 6.583 300.558 6.655 300.672 6.799C300.792 6.943 300.852 7.228 300.852 7.654V13ZM302.566 6.7H305.959V7.699H303.718V8.707C304.642 8.707 305.275 8.896 305.617 9.274C305.965 9.652 306.139 10.204 306.139 10.93C306.139 12.346 305.455 13.054 304.087 13.054C303.457 13.054 302.983 12.889 302.665 12.559C302.353 12.229 302.197 11.788 302.197 11.236H303.34C303.34 11.338 303.352 11.44 303.376 11.542C303.406 11.638 303.478 11.737 303.592 11.839C303.706 11.935 303.859 11.983 304.051 11.983C304.369 11.983 304.6 11.896 304.744 11.722C304.894 11.542 304.969 11.332 304.969 11.092C304.969 10.852 304.951 10.663 304.915 10.525C304.885 10.387 304.816 10.246 304.708 10.102C304.492 9.802 304.009 9.652 303.259 9.652H302.566V6.7ZM314.529 13H313.224L312.864 11.893H310.713L310.362 13H309.057L311.109 7.132C311.199 6.928 311.298 6.787 311.406 6.709C311.52 6.631 311.658 6.592 311.82 6.592C311.982 6.592 312.111 6.628 312.207 6.7C312.309 6.772 312.399 6.916 312.477 7.132L314.529 13ZM312.576 10.84L311.82 8.302L311.028 10.84H312.576ZM320.142 9.175L318.99 11.605C318.822 11.929 318.612 12.091 318.36 12.091C318.114 12.091 317.907 11.92 317.739 11.578L316.569 9.175V13H315.318V6.592H316.551L318.36 10.291L320.16 6.592H321.393V13H320.142V9.175Z" fill="#979797"/>
<path d="M54.26 138.332V138.98C54.26 140.412 53.988 141.452 53.444 142.1C52.908 142.748 52.044 143.072 50.852 143.072C49.66 143.072 48.796 142.748 48.26 142.1C47.732 141.452 47.468 140.4 47.468 138.944V138.32C47.468 136.992 47.736 136.004 48.272 135.356C48.816 134.708 49.672 134.384 50.84 134.384C52.016 134.384 52.88 134.712 53.432 135.368C53.984 136.024 54.26 137.012 54.26 138.332ZM52.592 138.944V138.5C52.592 137.732 52.496 137.12 52.304 136.664C52.08 136.136 51.6 135.872 50.864 135.872C50.12 135.872 49.636 136.136 49.412 136.664C49.228 137.096 49.136 137.708 49.136 138.5V138.944C49.136 139.976 49.28 140.672 49.568 141.032C49.68 141.184 49.844 141.316 50.06 141.428C50.284 141.532 50.548 141.584 50.852 141.584C51.164 141.584 51.428 141.532 51.644 141.428C51.86 141.324 52.028 141.196 52.148 141.044C52.268 140.892 52.36 140.692 52.424 140.444C52.536 140.052 52.592 139.552 52.592 138.944ZM58.5267 143H57.5547C56.9627 143 56.5107 142.824 56.1987 142.472C55.8947 142.12 55.7427 141.7 55.7427 141.212V137.612H55.0827V136.424H55.7427V135.08H57.3027V136.424H58.4067V137.612H57.3027V141.116C57.3027 141.492 57.4827 141.68 57.8427 141.68H58.5267V143ZM65.1094 143H63.5494V138.704C63.5494 137.968 63.2614 137.6 62.6854 137.6L61.1974 138.188V143H59.6374V133.976H61.1974V136.964L63.1774 136.076C63.8814 136.076 64.3774 136.276 64.6654 136.676C64.9614 137.076 65.1094 137.636 65.1094 138.356V143ZM75.4814 143H73.9214V138.74C73.9214 138.316 73.8694 138.02 73.7654 137.852C73.6694 137.684 73.4974 137.6 73.2494 137.6L71.8454 138.188V143H70.2854V138.74C70.2854 137.98 70.0214 137.6 69.4934 137.6L68.2094 138.188V143H66.6494V136.148H67.8134L68.1734 136.964L69.9734 136.076C70.5974 136.076 71.0694 136.38 71.3894 136.988L73.6214 136.076C74.2454 136.076 74.7094 136.288 75.0134 136.712C75.3254 137.128 75.4814 137.692 75.4814 138.404V143ZM81.8772 143H80.8332L80.3532 142.172L78.6852 143.072C77.7572 143.072 77.1332 142.736 76.8132 142.064C76.6532 141.736 76.5412 141.384 76.4772 141.008C76.4212 140.624 76.3932 140.228 76.3932 139.82C76.3932 139.404 76.3972 139.1 76.4052 138.908C76.4132 138.708 76.4332 138.48 76.4652 138.224C76.4972 137.96 76.5412 137.74 76.5972 137.564C76.6612 137.388 76.7492 137.208 76.8612 137.024C76.9732 136.832 77.1092 136.68 77.2692 136.568C77.6292 136.32 78.0972 136.196 78.6732 136.196H80.3172L81.8772 136.1V143ZM80.3172 140.816V137.6H79.1292C78.6892 137.6 78.3812 137.768 78.2052 138.104C78.0372 138.44 77.9532 138.944 77.9532 139.616C77.9532 140.28 78.0332 140.748 78.1932 141.02C78.3612 141.292 78.6732 141.428 79.1292 141.428L80.3172 140.816ZM88.8873 143H87.3273V138.62C87.3273 138.228 87.2473 137.96 87.0873 137.816C86.9273 137.672 86.7033 137.6 86.4153 137.6L85.0113 138.188V143H83.4513V136.148H84.6153L84.9753 136.964L86.8953 136.076C87.4313 136.076 87.8953 136.276 88.2873 136.676C88.6873 137.068 88.8873 137.644 88.8873 138.404V143ZM92.0942 141.392C92.2222 141.512 92.2862 141.772 92.2862 142.172C92.2862 142.572 92.2222 142.836 92.0942 142.964C91.9742 143.092 91.7142 143.156 91.3142 143.156C90.9142 143.156 90.6502 143.092 90.5222 142.964C90.3942 142.836 90.3302 142.572 90.3302 142.172C90.3302 141.772 90.3942 141.512 90.5222 141.392C90.6502 141.264 90.9142 141.2 91.3142 141.2C91.7142 141.2 91.9742 141.264 92.0942 141.392ZM94.7813 133.532C95.1573 133.532 95.4013 133.592 95.5133 133.712C95.6253 133.824 95.6813 134.068 95.6813 134.444C95.6813 134.812 95.6213 135.056 95.5013 135.176C95.3893 135.288 95.1453 135.344 94.7693 135.344C94.4013 135.344 94.1573 135.284 94.0373 135.164C93.9253 135.044 93.8693 134.8 93.8693 134.432C93.8693 134.064 93.9253 133.824 94.0373 133.712C94.1573 133.592 94.4053 133.532 94.7813 133.532ZM95.5493 143H93.9893V136.4H95.5493V143ZM101.998 141.104V141.284C101.95 141.884 101.694 142.336 101.23 142.64C100.774 142.944 100.202 143.096 99.514 143.096C98.498 143.096 97.786 142.912 97.378 142.544C97.002 142.208 96.814 141.712 96.814 141.056V140.912H98.23C98.23 141.28 98.326 141.532 98.518 141.668C98.71 141.804 99.042 141.872 99.514 141.872C100.154 141.872 100.474 141.64 100.474 141.176C100.474 140.792 100.362 140.536 100.138 140.408C100.034 140.344 99.902 140.296 99.742 140.264L98.53 140.06C97.474 139.892 96.946 139.232 96.946 138.08C96.946 137.44 97.178 136.944 97.642 136.592C98.114 136.232 98.71 136.052 99.43 136.052C101.07 136.052 101.89 136.76 101.89 138.176V138.332H100.534C100.518 137.956 100.418 137.7 100.234 137.564C100.05 137.428 99.79 137.36 99.454 137.36C99.126 137.36 98.878 137.428 98.71 137.564C98.542 137.692 98.458 137.836 98.458 137.996C98.458 138.452 98.642 138.712 99.01 138.776L100.462 139.04C101.486 139.232 101.998 139.92 101.998 141.104ZM104.95 141.392C105.078 141.512 105.142 141.772 105.142 142.172C105.142 142.572 105.078 142.836 104.95 142.964C104.83 143.092 104.57 143.156 104.17 143.156C103.77 143.156 103.506 143.092 103.378 142.964C103.25 142.836 103.186 142.572 103.186 142.172C103.186 141.772 103.25 141.512 103.378 141.392C103.506 141.264 103.77 141.2 104.17 141.2C104.57 141.2 104.83 141.264 104.95 141.392ZM115.677 143H114.117V138.74C114.117 138.316 114.065 138.02 113.961 137.852C113.865 137.684 113.693 137.6 113.445 137.6L112.041 138.188V143H110.481V138.74C110.481 137.98 110.217 137.6 109.689 137.6L108.405 138.188V143H106.845V136.148H108.009L108.369 136.964L110.169 136.076C110.793 136.076 111.265 136.38 111.585 136.988L113.817 136.076C114.441 136.076 114.905 136.288 115.209 136.712C115.521 137.128 115.677 137.692 115.677 138.404V143ZM122.492 139.94H118.496C118.496 140.564 118.592 141.02 118.784 141.308C118.984 141.596 119.38 141.74 119.972 141.74C120.356 141.74 120.64 141.62 120.824 141.38C121.008 141.132 121.1 140.896 121.1 140.672H122.504C122.504 141.528 122.272 142.156 121.808 142.556C121.352 142.956 120.744 143.156 119.984 143.156C119.232 143.156 118.648 143.048 118.232 142.832C117.376 142.392 116.948 141.224 116.948 139.328C116.948 138.2 117.192 137.376 117.68 136.856C118.168 136.328 118.912 136.064 119.912 136.064C121.648 136.064 122.516 137.028 122.516 138.956C122.516 139.164 122.508 139.492 122.492 139.94ZM118.532 138.872H121.1C121.1 138.344 121 137.96 120.8 137.72C120.6 137.48 120.292 137.36 119.876 137.36C119.468 137.36 119.14 137.484 118.892 137.732C118.652 137.972 118.532 138.352 118.532 138.872Z" fill="black"/>
<circle cx="17" cy="143" r="17" fill="#9B55F6"/>
<path d="M52.508 154H51.257V151.408H48.908V154H47.657V147.592H48.908V150.301H51.257V147.592H52.508V154ZM57.6701 151.705H54.6731C54.6731 152.173 54.7451 152.515 54.8891 152.731C55.0391 152.947 55.3361 153.055 55.7801 153.055C56.0681 153.055 56.2811 152.965 56.4191 152.785C56.5571 152.599 56.6261 152.422 56.6261 152.254H57.6791C57.6791 152.896 57.5051 153.367 57.1571 153.667C56.8151 153.967 56.3591 154.117 55.7891 154.117C55.2251 154.117 54.7871 154.036 54.4751 153.874C53.8331 153.544 53.5121 152.668 53.5121 151.246C53.5121 150.4 53.6951 149.782 54.0611 149.392C54.4271 148.996 54.9851 148.798 55.7351 148.798C57.0371 148.798 57.6881 149.521 57.6881 150.967C57.6881 151.123 57.6821 151.369 57.6701 151.705ZM54.7001 150.904H56.6261C56.6261 150.508 56.5511 150.22 56.4011 150.04C56.2511 149.86 56.0201 149.77 55.7081 149.77C55.4021 149.77 55.1561 149.863 54.9701 150.049C54.7901 150.229 54.7001 150.514 54.7001 150.904ZM62.5018 148.861L60.5488 154.576C60.4588 154.834 60.3418 155.035 60.1978 155.179C59.9578 155.419 59.6218 155.539 59.1898 155.539H58.6408V154.486H59.0008C59.1688 154.486 59.2918 154.456 59.3698 154.396C59.4538 154.342 59.5258 154.231 59.5858 154.063L59.6758 153.811L58.1278 148.861H59.3608L60.2788 152.434L61.2688 148.861H62.5018ZM71.4259 148.861L69.9949 154H69.0319L68.0509 150.877L67.0699 154H66.1069L64.6669 148.861H65.9089L66.6649 152.209L67.4479 149.455C67.5379 149.059 67.7419 148.861 68.0599 148.861C68.2099 148.861 68.3299 148.909 68.4199 149.005C68.5099 149.101 68.5849 149.251 68.6449 149.455L69.4369 152.209L70.1929 148.861H71.4259ZM76.086 154H74.916V150.778C74.916 150.226 74.7 149.95 74.268 149.95L73.152 150.391V154H71.982V147.232H73.152V149.473L74.637 148.807C75.165 148.807 75.537 148.957 75.753 149.257C75.975 149.557 76.086 149.977 76.086 150.517V154ZM80.778 154H79.995L79.635 153.379L78.384 154.054C77.688 154.054 77.22 153.802 76.98 153.298C76.86 153.052 76.776 152.788 76.728 152.506C76.686 152.218 76.665 151.921 76.665 151.615C76.665 151.303 76.668 151.075 76.674 150.931C76.68 150.781 76.695 150.61 76.719 150.418C76.743 150.22 76.776 150.055 76.818 149.923C76.866 149.791 76.932 149.656 77.016 149.518C77.1 149.374 77.202 149.26 77.322 149.176C77.592 148.99 77.943 148.897 78.375 148.897H79.608L80.778 148.825V154ZM79.608 152.362V149.95H78.717C78.387 149.95 78.156 150.076 78.024 150.328C77.898 150.58 77.835 150.958 77.835 151.462C77.835 151.96 77.895 152.311 78.015 152.515C78.141 152.719 78.375 152.821 78.717 152.821L79.608 152.362ZM84.2446 154H83.5156C83.0716 154 82.7326 153.868 82.4986 153.604C82.2706 153.34 82.1566 153.025 82.1566 152.659V149.959H81.6616V149.068H82.1566V148.06H83.3266V149.068H84.1546V149.959H83.3266V152.587C83.3266 152.869 83.4616 153.01 83.7316 153.01H84.2446V154ZM88.7407 152.578V152.713C88.7047 153.163 88.5127 153.502 88.1647 153.73C87.8227 153.958 87.3937 154.072 86.8777 154.072C86.1157 154.072 85.5817 153.934 85.2757 153.658C84.9937 153.406 84.8527 153.034 84.8527 152.542V152.434H85.9147C85.9147 152.71 85.9867 152.899 86.1307 153.001C86.2747 153.103 86.5237 153.154 86.8777 153.154C87.3577 153.154 87.5977 152.98 87.5977 152.632C87.5977 152.344 87.5137 152.152 87.3457 152.056C87.2677 152.008 87.1687 151.972 87.0487 151.948L86.1397 151.795C85.3477 151.669 84.9517 151.174 84.9517 150.31C84.9517 149.83 85.1257 149.458 85.4737 149.194C85.8277 148.924 86.2747 148.789 86.8147 148.789C88.0447 148.789 88.6597 149.32 88.6597 150.382V150.499H87.6427C87.6307 150.217 87.5557 150.025 87.4177 149.923C87.2797 149.821 87.0847 149.77 86.8327 149.77C86.5867 149.77 86.4007 149.821 86.2747 149.923C86.1487 150.019 86.0857 150.127 86.0857 150.247C86.0857 150.589 86.2237 150.784 86.4997 150.832L87.5887 151.03C88.3567 151.174 88.7407 151.69 88.7407 152.578ZM93.2495 152.578V152.713C93.2135 153.163 93.0215 153.502 92.6735 153.73C92.3315 153.958 91.9025 154.072 91.3865 154.072C90.6245 154.072 90.0905 153.934 89.7845 153.658C89.5025 153.406 89.3615 153.034 89.3615 152.542V152.434H90.4235C90.4235 152.71 90.4955 152.899 90.6395 153.001C90.7835 153.103 91.0325 153.154 91.3865 153.154C91.8665 153.154 92.1065 152.98 92.1065 152.632C92.1065 152.344 92.0225 152.152 91.8545 152.056C91.7765 152.008 91.6775 151.972 91.5575 151.948L90.6485 151.795C89.8565 151.669 89.4605 151.174 89.4605 150.31C89.4605 149.83 89.6345 149.458 89.9825 149.194C90.3365 148.924 90.7835 148.789 91.3235 148.789C92.5535 148.789 93.1685 149.32 93.1685 150.382V150.499H92.1515C92.1395 150.217 92.0645 150.025 91.9265 149.923C91.7885 149.821 91.5935 149.77 91.3415 149.77C91.0955 149.77 90.9095 149.821 90.7835 149.923C90.6575 150.019 90.5945 150.127 90.5945 150.247C90.5945 150.589 90.7325 150.784 91.0085 150.832L92.0975 151.03C92.8655 151.174 93.2495 151.69 93.2495 152.578ZM98.0732 154H97.2002L96.9302 153.388L95.4902 154.054C95.0882 154.054 94.7372 153.907 94.4372 153.613C94.1432 153.313 93.9962 152.878 93.9962 152.308V148.861H95.1662V152.056C95.1662 152.626 95.3942 152.911 95.8502 152.911L96.9032 152.344V148.861H98.0732V154ZM103.493 151.291C103.493 152.629 103.148 153.484 102.458 153.856C102.176 154.006 101.831 154.081 101.423 154.081L100.559 153.523V155.53H99.3894V148.897H101.693C102.389 148.897 102.863 149.095 103.115 149.491C103.367 149.881 103.493 150.481 103.493 151.291ZM102.323 151.471C102.323 150.457 101.999 149.95 101.351 149.95H100.559V152.335L101.351 152.848C101.699 152.848 101.948 152.74 102.098 152.524C102.248 152.302 102.323 151.951 102.323 151.471Z" fill="#979797"/>
<path d="M288.925 141H287.701V135.744L286.918 135.456V134.583H287.98C288.376 134.583 288.631 134.655 288.745 134.799C288.865 134.943 288.925 135.228 288.925 135.654V141ZM294.68 137.616V137.985C294.68 138.429 294.665 138.801 294.635 139.101C294.605 139.401 294.545 139.683 294.455 139.947C294.365 140.211 294.239 140.421 294.077 140.577C293.915 140.727 293.702 140.844 293.438 140.928C293.18 141.012 292.865 141.054 292.493 141.054C292.121 141.054 291.803 141.012 291.539 140.928C291.281 140.838 291.071 140.718 290.909 140.568C290.747 140.418 290.621 140.211 290.531 139.947C290.441 139.677 290.381 139.392 290.351 139.092C290.321 138.792 290.306 138.417 290.306 137.967V137.625C290.306 136.701 290.378 136.02 290.522 135.582C290.612 135.318 290.738 135.114 290.9 134.97C291.242 134.682 291.773 134.538 292.493 134.538C293.333 134.538 293.906 134.766 294.212 135.222C294.524 135.678 294.68 136.476 294.68 137.616ZM293.474 138.264V137.265C293.468 136.671 293.402 136.254 293.276 136.014C293.15 135.774 292.889 135.654 292.493 135.654C292.097 135.654 291.836 135.774 291.71 136.014C291.584 136.248 291.518 136.653 291.512 137.229V138.264C291.518 138.906 291.581 139.347 291.701 139.587C291.821 139.821 292.088 139.938 292.502 139.938C292.916 139.938 293.18 139.824 293.294 139.596C293.408 139.368 293.468 138.924 293.474 138.264ZM297.195 139.794C297.291 139.884 297.339 140.079 297.339 140.379C297.339 140.679 297.291 140.877 297.195 140.973C297.105 141.069 296.91 141.117 296.61 141.117C296.31 141.117 296.112 141.069 296.016 140.973C295.92 140.877 295.872 140.679 295.872 140.379C295.872 140.079 295.92 139.884 296.016 139.794C296.112 139.698 296.31 139.65 296.61 139.65C296.91 139.65 297.105 139.698 297.195 139.794ZM297.177 137.292C297.273 137.382 297.321 137.577 297.321 137.877C297.321 138.177 297.273 138.375 297.177 138.471C297.087 138.567 296.892 138.615 296.592 138.615C296.292 138.615 296.094 138.567 295.998 138.471C295.902 138.375 295.854 138.177 295.854 137.877C295.854 137.577 295.902 137.382 295.998 137.292C296.094 137.196 296.292 137.148 296.592 137.148C296.892 137.148 297.087 137.196 297.177 137.292ZM300.852 141H299.628V135.744L298.845 135.456V134.583H299.907C300.303 134.583 300.558 134.655 300.672 134.799C300.792 134.943 300.852 135.228 300.852 135.654V141ZM302.566 134.7H305.959V135.699H303.718V136.707C304.642 136.707 305.275 136.896 305.617 137.274C305.965 137.652 306.139 138.204 306.139 138.93C306.139 140.346 305.455 141.054 304.087 141.054C303.457 141.054 302.983 140.889 302.665 140.559C302.353 140.229 302.197 139.788 302.197 139.236H303.34C303.34 139.338 303.352 139.44 303.376 139.542C303.406 139.638 303.478 139.737 303.592 139.839C303.706 139.935 303.859 139.983 304.051 139.983C304.369 139.983 304.6 139.896 304.744 139.722C304.894 139.542 304.969 139.332 304.969 139.092C304.969 138.852 304.951 138.663 304.915 138.525C304.885 138.387 304.816 138.246 304.708 138.102C304.492 137.802 304.009 137.652 303.259 137.652H302.566V134.7ZM314.529 141H313.224L312.864 139.893H310.713L310.362 141H309.057L311.109 135.132C311.199 134.928 311.298 134.787 311.406 134.709C311.52 134.631 311.658 134.592 311.82 134.592C311.982 134.592 312.111 134.628 312.207 134.7C312.309 134.772 312.399 134.916 312.477 135.132L314.529 141ZM312.576 138.84L311.82 136.302L311.028 138.84H312.576ZM320.142 137.175L318.99 139.605C318.822 139.929 318.612 140.091 318.36 140.091C318.114 140.091 317.907 139.92 317.739 139.578L316.569 137.175V141H315.318V134.592H316.551L318.36 138.291L320.16 134.592H321.393V141H320.142V137.175Z" fill="#979797"/>
</svg>
